<svg width="113" height="114" viewBox="0 0 113 114" fill="none" xmlns="http://www.w3.org/2000/svg">
<path d="M79.1163 9.07015C84.124 0.396559 95.2152 -2.57507 103.889 2.43263C112.562 7.44033 115.534 18.5314 110.527 27.205C105.519 35.8786 94.4279 38.8502 85.7543 33.8425C77.0807 28.8348 74.1086 17.7437 79.1163 9.07015Z" fill="#D9D9D9"/>
<path d="M79.1163 9.07015C84.124 0.396559 95.2152 -2.57507 103.889 2.43263C112.562 7.44033 115.534 18.5314 110.527 27.205C105.519 35.8786 94.4279 38.8502 85.7543 33.8425C77.0807 28.8348 74.1086 17.7437 79.1163 9.07015Z" fill="url(#paint0_linear_354_1123)"/>
<path d="M2.4326 14.0106C7.4403 5.33696 18.5312 2.36517 27.2048 7.37287L78.9649 37.2565C87.6385 42.2642 90.6103 53.3551 85.6026 62.0287C80.5948 70.7023 69.504 73.6741 60.8304 68.6664L9.07028 38.7827C0.396672 33.775 -2.57511 22.6841 2.4326 14.0106Z" fill="#D9D9D9"/>
<path d="M2.4326 14.0106C7.4403 5.33696 18.5312 2.36517 27.2048 7.37287L78.9649 37.2565C87.6385 42.2642 90.6103 53.3551 85.6026 62.0287C80.5948 70.7023 69.504 73.6741 60.8304 68.6664L9.07028 38.7827C0.396672 33.775 -2.57511 22.6841 2.4326 14.0106Z" fill="url(#paint1_linear_354_1123)"/>
<path d="M88.4259 63.4186C93.4337 54.7449 90.4619 43.6538 81.7881 38.646C73.1144 33.6382 62.0233 36.6101 57.0155 45.2838L33.1414 86.6349C28.1336 95.3087 31.1054 106.4 39.7792 111.408C48.4529 116.415 59.544 113.443 64.5518 104.77L88.4259 63.4186Z" fill="#D9D9D9"/>
<path d="M88.4259 63.4186C93.4337 54.7449 90.4619 43.6538 81.7881 38.646C73.1144 33.6382 62.0233 36.6101 57.0155 45.2838L33.1414 86.6349C28.1336 95.3087 31.1054 106.4 39.7792 111.408C48.4529 116.415 59.544 113.443 64.5518 104.77L88.4259 63.4186Z" fill="url(#paint2_linear_354_1123)"/>
<defs>
<linearGradient id="paint0_linear_354_1123" x1="81.7881" y1="38.646" x2="39.7792" y2="111.408" gradientUnits="userSpaceOnUse">
<stop stop-color="#6F65F8"/>
<stop offset="1" stop-color="#5E55E3"/>
</linearGradient>
<linearGradient id="paint1_linear_354_1123" x1="81.7881" y1="38.646" x2="39.7792" y2="111.408" gradientUnits="userSpaceOnUse">
<stop stop-color="#6F65F8"/>
<stop offset="1" stop-color="#5E55E3"/>
</linearGradient>
<linearGradient id="paint2_linear_354_1123" x1="81.7881" y1="38.646" x2="39.7792" y2="111.408" gradientUnits="userSpaceOnUse">
<stop stop-color="#6F65F8"/>
<stop offset="1" stop-color="#5E55E3"/>
</linearGradient>
</defs>
</svg>
