<svg width="432" height="114" viewBox="0 0 432 114" fill="none" xmlns="http://www.w3.org/2000/svg">
<path d="M79.1163 9.07015C84.124 0.396559 95.2152 -2.57507 103.889 2.43263C112.562 7.44033 115.534 18.5314 110.527 27.205C105.519 35.8786 94.4279 38.8502 85.7543 33.8425C77.0807 28.8348 74.1086 17.7437 79.1163 9.07015Z" fill="#D9D9D9"/>
<path d="M79.1163 9.07015C84.124 0.396559 95.2152 -2.57507 103.889 2.43263C112.562 7.44033 115.534 18.5314 110.527 27.205C105.519 35.8786 94.4279 38.8502 85.7543 33.8425C77.0807 28.8348 74.1086 17.7437 79.1163 9.07015Z" fill="url(#paint0_linear_354_1122)"/>
<path d="M2.4326 14.0106C7.4403 5.33696 18.5312 2.36517 27.2048 7.37287L78.9649 37.2565C87.6385 42.2642 90.6103 53.3551 85.6026 62.0287C80.5948 70.7023 69.504 73.6741 60.8304 68.6664L9.07028 38.7827C0.396672 33.775 -2.57511 22.6841 2.4326 14.0106Z" fill="#D9D9D9"/>
<path d="M2.4326 14.0106C7.4403 5.33696 18.5312 2.36517 27.2048 7.37287L78.9649 37.2565C87.6385 42.2642 90.6103 53.3551 85.6026 62.0287C80.5948 70.7023 69.504 73.6741 60.8304 68.6664L9.07028 38.7827C0.396672 33.775 -2.57511 22.6841 2.4326 14.0106Z" fill="url(#paint1_linear_354_1122)"/>
<path d="M88.4259 63.4186C93.4337 54.7449 90.4619 43.6538 81.7881 38.646C73.1144 33.6382 62.0233 36.6101 57.0155 45.2838L33.1414 86.6349C28.1336 95.3087 31.1054 106.4 39.7792 111.408C48.4529 116.415 59.544 113.443 64.5518 104.77L88.4259 63.4186Z" fill="#D9D9D9"/>
<path d="M88.4259 63.4186C93.4337 54.7449 90.4619 43.6538 81.7881 38.646C73.1144 33.6382 62.0233 36.6101 57.0155 45.2838L33.1414 86.6349C28.1336 95.3087 31.1054 106.4 39.7792 111.408C48.4529 116.415 59.544 113.443 64.5518 104.77L88.4259 63.4186Z" fill="url(#paint2_linear_354_1122)"/>
<path d="M204.534 99.356C201.551 99.356 199.276 98.532 197.706 96.884C196.137 95.236 195.352 92.8817 195.352 89.8212V55.684L199.119 66.1606L171.338 26.7263C170.239 25.0783 169.769 23.3126 169.925 21.4292C170.082 19.4673 170.867 17.78 172.28 16.3675C173.692 14.9549 175.693 14.2486 178.283 14.2486C180.167 14.2486 181.854 14.7195 183.345 15.6612C184.914 16.6029 186.406 18.0939 187.818 20.1343L206.652 47.3263H202.886L221.72 20.1343C223.211 18.0155 224.663 16.5244 226.075 15.6612C227.566 14.7195 229.293 14.2486 231.255 14.2486C233.766 14.2486 235.728 14.9156 237.14 16.2497C238.553 17.5054 239.299 19.1141 239.377 21.076C239.455 22.9595 238.788 24.9214 237.376 26.9617L209.948 66.1606L213.598 55.684V89.8212C213.598 96.1777 210.576 99.356 204.534 99.356Z" fill="url(#paint3_linear_354_1122)"/>
<path d="M260.649 99.5915C255.784 99.5915 251.742 98.689 248.525 96.884C245.307 95.0791 242.914 92.3717 241.344 88.7617C239.853 85.0734 239.108 80.5217 239.108 75.1069V48.5035C239.108 45.5214 239.853 43.2848 241.344 41.7937C242.914 40.3027 245.111 39.5572 247.936 39.5572C250.761 39.5572 252.959 40.3027 254.528 41.7937C256.098 43.2848 256.882 45.5214 256.882 48.5035V75.5777C256.882 79.0307 257.589 81.6204 259.001 83.3469C260.414 84.9949 262.65 85.8189 265.711 85.8189C269.086 85.8189 271.832 84.6418 273.951 82.2875C276.148 79.8547 277.247 76.6764 277.247 72.7526V48.5035C277.247 45.5214 277.993 43.2848 279.484 41.7937C281.053 40.3027 283.25 39.5572 286.076 39.5572C288.979 39.5572 291.177 40.3027 292.668 41.7937C294.237 43.2848 295.022 45.5214 295.022 48.5035V90.292C295.022 96.3347 292.158 99.356 286.429 99.356C283.604 99.356 281.446 98.5713 279.954 97.0018C278.463 95.4322 277.718 93.1957 277.718 90.292V82.4052L279.484 86.996C277.757 90.9983 275.285 94.0981 272.068 96.2955C268.85 98.4928 265.044 99.5915 260.649 99.5915Z" fill="url(#paint4_linear_354_1122)"/>
<path d="M317.722 99.356C314.819 99.356 312.582 98.5713 311.013 97.0018C309.522 95.4322 308.776 93.1957 308.776 90.292V23.3126C308.776 20.3305 309.522 18.0939 311.013 16.6029C312.582 15.0334 314.819 14.2486 317.722 14.2486C320.548 14.2486 322.706 15.0334 324.197 16.6029C325.766 18.0939 326.551 20.3305 326.551 23.3126V64.3949H326.786L343.855 45.4429C345.581 43.481 347.151 42.0292 348.564 41.0875C350.055 40.0673 352.017 39.5572 354.449 39.5572C356.882 39.5572 358.726 40.185 359.982 41.4406C361.316 42.6962 361.983 44.2265 361.983 46.0315C362.062 47.7579 361.316 49.5237 359.746 51.3286L341.736 71.4577V64.748L361.748 87.82C363.239 89.625 363.866 91.4299 363.631 93.2349C363.474 95.0398 362.689 96.5309 361.277 97.708C359.864 98.8067 358.059 99.356 355.862 99.356C353.194 99.356 351.036 98.8459 349.388 97.8258C347.818 96.8056 346.209 95.236 344.561 93.1172L326.786 73.3412H326.551V90.292C326.551 96.3347 323.608 99.356 317.722 99.356Z" fill="url(#paint5_linear_354_1122)"/>
<path d="M401.277 99.5915C395.077 99.5915 389.662 98.3751 385.032 95.9423C380.48 93.5096 376.949 90.0174 374.438 85.4657C371.927 80.9141 370.671 75.5385 370.671 69.3389C370.671 64.7088 371.377 60.5496 372.79 56.8612C374.202 53.1728 376.243 50.0337 378.911 47.444C381.658 44.7758 384.914 42.7747 388.681 41.4406C392.448 40.028 396.647 39.3217 401.277 39.3217C407.476 39.3217 412.852 40.5381 417.404 42.9709C422.034 45.4037 425.604 48.8566 428.116 53.3297C430.705 57.8029 432 63.1393 432 69.3389C432 74.0475 431.255 78.2459 429.764 81.9343C428.351 85.6227 426.311 88.801 423.642 91.4692C420.974 94.1374 417.717 96.1777 413.872 97.5903C410.105 98.9244 405.907 99.5915 401.277 99.5915ZM401.277 86.2897C403.866 86.2897 406.103 85.6619 407.986 84.4063C409.87 83.1507 411.361 81.3065 412.46 78.8737C413.558 76.3625 414.108 73.1842 414.108 69.3389C414.108 63.6101 412.93 59.4117 410.576 56.7435C408.222 53.9968 405.122 52.6235 401.277 52.6235C398.765 52.6235 396.529 53.212 394.567 54.3892C392.684 55.5663 391.192 57.4105 390.094 59.9217C389.074 62.3545 388.564 65.4936 388.564 69.3389C388.564 75.0677 389.741 79.3446 392.095 82.1697C394.449 84.9164 397.51 86.2897 401.277 86.2897Z" fill="url(#paint6_linear_354_1122)"/>
<defs>
<linearGradient id="paint0_linear_354_1122" x1="81.7881" y1="38.646" x2="39.7792" y2="111.408" gradientUnits="userSpaceOnUse">
<stop stop-color="#6F65F8"/>
<stop offset="1" stop-color="#5E55E3"/>
</linearGradient>
<linearGradient id="paint1_linear_354_1122" x1="81.7881" y1="38.646" x2="39.7792" y2="111.408" gradientUnits="userSpaceOnUse">
<stop stop-color="#6F65F8"/>
<stop offset="1" stop-color="#5E55E3"/>
</linearGradient>
<linearGradient id="paint2_linear_354_1122" x1="81.7881" y1="38.646" x2="39.7792" y2="111.408" gradientUnits="userSpaceOnUse">
<stop stop-color="#6F65F8"/>
<stop offset="1" stop-color="#5E55E3"/>
</linearGradient>
<linearGradient id="paint3_linear_354_1122" x1="359.672" y1="43.2204" x2="346.562" y2="113.505" gradientUnits="userSpaceOnUse">
<stop stop-color="#6F65F8"/>
<stop offset="1" stop-color="#5E55E3"/>
</linearGradient>
<linearGradient id="paint4_linear_354_1122" x1="359.672" y1="43.2204" x2="346.562" y2="113.505" gradientUnits="userSpaceOnUse">
<stop stop-color="#6F65F8"/>
<stop offset="1" stop-color="#5E55E3"/>
</linearGradient>
<linearGradient id="paint5_linear_354_1122" x1="359.672" y1="43.2204" x2="346.562" y2="113.505" gradientUnits="userSpaceOnUse">
<stop stop-color="#6F65F8"/>
<stop offset="1" stop-color="#5E55E3"/>
</linearGradient>
<linearGradient id="paint6_linear_354_1122" x1="359.672" y1="43.2204" x2="346.562" y2="113.505" gradientUnits="userSpaceOnUse">
<stop stop-color="#6F65F8"/>
<stop offset="1" stop-color="#5E55E3"/>
</linearGradient>
</defs>
</svg>
