<svg width="293" height="80" viewBox="0 0 293 80" fill="none" xmlns="http://www.w3.org/2000/svg">
<path d="M55.5981 6.37396C59.1172 0.278678 66.9114 -1.8096 73.0067 1.70951C79.102 5.22862 81.1905 13.0227 77.6714 19.118C74.1523 25.2133 66.3581 27.3016 60.2628 23.7825C54.1676 20.2633 52.079 12.4692 55.5981 6.37396Z" fill="#D9D9D9"/>
<path d="M55.5981 6.37396C59.1172 0.278678 66.9114 -1.8096 73.0067 1.70951C79.102 5.22862 81.1905 13.0227 77.6714 19.118C74.1523 25.2133 66.3581 27.3016 60.2628 23.7825C54.1676 20.2633 52.079 12.4692 55.5981 6.37396Z" fill="#6F65F8"/>
<path d="M1.70948 9.84577C5.22859 3.75049 13.0226 1.6621 19.1179 5.18121L55.4917 26.1816C61.587 29.7008 63.6754 37.4947 60.1562 43.59C56.6371 49.6853 48.8431 51.7737 42.7479 48.2546L6.37404 27.2542C0.278757 23.735 -1.80963 15.941 1.70948 9.84577Z" fill="#D9D9D9"/>
<path d="M1.70948 9.84577C5.22859 3.75049 13.0226 1.6621 19.1179 5.18121L55.4917 26.1816C61.587 29.7008 63.6754 37.4947 60.1562 43.59C56.6371 49.6853 48.8431 51.7737 42.7479 48.2546L6.37404 27.2542C0.278757 23.735 -1.80963 15.941 1.70948 9.84577Z" fill="#6F65F8"/>
<path d="M62.1403 44.5668C65.6595 38.4714 63.5711 30.6772 57.4757 27.1581C51.3803 23.6389 43.5862 25.7273 40.067 31.8227L23.2897 60.8818C19.7706 66.9772 21.859 74.7713 27.9544 78.2905C34.0498 81.8097 41.8439 79.7212 45.3631 73.6258L62.1403 44.5668Z" fill="#D9D9D9"/>
<path d="M62.1403 44.5668C65.6595 38.4714 63.5711 30.6772 57.4757 27.1581C51.3803 23.6389 43.5862 25.7273 40.067 31.8227L23.2897 60.8818C19.7706 66.9772 21.859 74.7713 27.9544 78.2905C34.0498 81.8097 41.8439 79.7212 45.3631 73.6258L62.1403 44.5668Z" fill="#6F65F8"/>
<path d="M128.873 70.4733C126.731 70.4733 125.097 69.8816 123.97 68.6981C122.843 67.5147 122.28 65.8241 122.28 63.6264V39.1128L124.984 46.6359L105.035 18.3185C104.247 17.1351 103.908 15.8672 104.021 14.5147C104.134 13.1059 104.697 11.8943 105.712 10.8799C106.726 9.86558 108.163 9.3584 110.023 9.3584C111.375 9.3584 112.587 9.69652 113.658 10.3728C114.785 11.049 115.855 12.1197 116.87 13.5849L130.394 33.1112H127.689L141.214 13.5849C142.285 12.0633 143.327 10.9926 144.342 10.3728C145.412 9.69652 146.652 9.3584 148.061 9.3584C149.864 9.3584 151.273 9.8374 152.288 10.7954C153.302 11.697 153.837 12.8523 153.894 14.2611C153.95 15.6136 153.471 17.0224 152.457 18.4876L132.761 46.6359L135.382 39.1128V63.6264C135.382 68.191 133.212 70.4733 128.873 70.4733Z" fill="#6F65F8"/>
<path d="M169.169 70.6423C165.675 70.6423 162.773 69.9943 160.462 68.6981C158.152 67.402 156.433 65.4578 155.306 62.8656C154.235 60.217 153.7 56.9485 153.7 53.0602V33.9565C153.7 31.8151 154.235 30.209 155.306 29.1383C156.433 28.0676 158.011 27.5323 160.04 27.5323C162.068 27.5323 163.646 28.0676 164.773 29.1383C165.9 30.209 166.464 31.8151 166.464 33.9565V53.3983C166.464 55.8778 166.971 57.7375 167.986 58.9772C169 60.1607 170.606 60.7524 172.804 60.7524C175.227 60.7524 177.199 59.9071 178.721 58.2165C180.299 56.4695 181.088 54.1872 181.088 51.3696V33.9565C181.088 31.8151 181.623 30.209 182.694 29.1383C183.821 28.0676 185.399 27.5323 187.427 27.5323C189.512 27.5323 191.09 28.0676 192.161 29.1383C193.288 30.209 193.852 31.8151 193.852 33.9565V63.9645C193.852 68.3037 191.795 70.4733 187.681 70.4733C185.652 70.4733 184.103 69.9097 183.032 68.7827C181.961 67.6556 181.426 66.0496 181.426 63.9645V58.301L182.694 61.5977C181.454 64.4717 179.679 66.6976 177.368 68.2755C175.058 69.8534 172.325 70.6423 169.169 70.6423Z" fill="#6F65F8"/>
<path d="M210.153 70.4733C208.068 70.4733 206.461 69.9097 205.334 68.7827C204.264 67.6556 203.728 66.0496 203.728 63.9645V15.8672C203.728 13.7258 204.264 12.1197 205.334 11.049C206.461 9.92193 208.068 9.3584 210.153 9.3584C212.181 9.3584 213.731 9.92193 214.802 11.049C215.929 12.1197 216.492 13.7258 216.492 15.8672V45.368H216.661L228.918 31.7587C230.158 30.3499 231.285 29.3074 232.299 28.6311C233.37 27.8985 234.779 27.5323 236.526 27.5323C238.273 27.5323 239.597 27.9831 240.499 28.8847C241.457 29.7864 241.936 30.8853 241.936 32.1814C241.992 33.4211 241.457 34.6891 240.33 35.9852L227.397 50.4398V45.6216L241.767 62.1894C242.837 63.4855 243.288 64.7816 243.119 66.0777C243.006 67.3739 242.443 68.4446 241.429 69.2899C240.414 70.0788 239.118 70.4733 237.54 70.4733C235.624 70.4733 234.074 70.107 232.891 69.3744C231.764 68.6418 230.609 67.5147 229.425 65.9932L216.661 51.7922H216.492V63.9645C216.492 68.3037 214.379 70.4733 210.153 70.4733Z" fill="#6F65F8"/>
<path d="M270.152 70.6423C265.7 70.6423 261.812 69.7689 258.487 68.0219C255.219 66.275 252.683 63.7673 250.879 60.4988C249.076 57.2303 248.174 53.3701 248.174 48.9182C248.174 45.5934 248.682 42.6067 249.696 39.9581C250.71 37.3095 252.175 35.0554 254.091 33.1957C256.064 31.2797 258.402 29.8427 261.107 28.8847C263.812 27.8704 266.827 27.3632 270.152 27.3632C274.604 27.3632 278.464 28.2367 281.733 29.9836C285.057 31.7306 287.622 34.2101 289.425 37.4222C291.284 40.6343 292.214 44.4663 292.214 48.9182C292.214 52.2994 291.679 55.3143 290.608 57.9629C289.594 60.6115 288.129 62.8938 286.213 64.8098C284.297 66.7258 281.958 68.191 279.197 69.2053C276.492 70.1633 273.477 70.6423 270.152 70.6423ZM270.152 61.0905C272.012 61.0905 273.618 60.6397 274.97 59.738C276.323 58.8364 277.393 57.5121 278.182 55.7651C278.971 53.9618 279.366 51.6795 279.366 48.9182C279.366 44.8045 278.52 41.7896 276.83 39.8736C275.139 37.9012 272.913 36.915 270.152 36.915C268.349 36.915 266.743 37.3377 265.334 38.183C263.981 39.0283 262.911 40.3526 262.122 42.1559C261.389 43.9028 261.023 46.1569 261.023 48.9182C261.023 53.032 261.868 56.1032 263.559 58.1319C265.249 60.1043 267.447 61.0905 270.152 61.0905Z" fill="#6F65F8"/>
</svg>
